<?xml version="1.0" encoding="UTF-8"?>
<svg id="Capa_2" data-name="Capa 2" xmlns="http://www.w3.org/2000/svg" viewBox="0 0 3592.73 2579.26">
  <defs>
    <style>
      .cls-1 {
        fill: #e2aa58;
      }

      .cls-2 {
        fill: #192c46;
      }

      .cls-3 {
        fill: #2e5080;
      }
    </style>
  </defs>
  <g id="Capa_1-2" data-name="Capa 1">
    <g>
      <g>
        <path class="cls-3" d="M111.12,2403.4v-91.03h14.88v91.03h-14.88Z"/>
        <path class="cls-3" d="M245.01,2403.4h-18.24l-44.77-72.54h-.5l.31,4.05c.58,7.72.87,14.78.87,21.17v47.32h-13.51v-91.03h18.06l44.65,72.17h.37c-.08-.95-.25-4.43-.5-10.43-.25-6-.37-10.68-.37-14.04v-47.7h13.64v91.03Z"/>
        <path class="cls-3" d="M340.66,2378.68c0,8.09-2.93,14.45-8.78,19.05-5.85,4.61-13.93,6.91-24.22,6.91s-18.72-1.6-25.28-4.79v-14.07c4.15,1.95,8.56,3.49,13.23,4.61s9.02,1.68,13.04,1.68c5.89,0,10.24-1.12,13.04-3.36,2.8-2.24,4.2-5.25,4.2-9.03,0-3.4-1.29-6.29-3.86-8.66-2.57-2.37-7.89-5.17-15.94-8.41-8.3-3.36-14.16-7.2-17.56-11.52-3.4-4.32-5.11-9.51-5.11-15.57,0-7.6,2.7-13.57,8.09-17.93,5.4-4.36,12.64-6.54,21.73-6.54s17.39,1.91,26.03,5.73l-4.73,12.14c-8.09-3.4-15.32-5.11-21.67-5.11-4.82,0-8.47,1.05-10.96,3.14-2.49,2.1-3.74,4.87-3.74,8.31,0,2.37.5,4.39,1.49,6.07,1,1.68,2.64,3.27,4.92,4.76,2.28,1.49,6.39,3.47,12.33,5.92,6.68,2.78,11.58,5.38,14.7,7.78,3.11,2.41,5.4,5.13,6.85,8.16,1.45,3.03,2.18,6.6,2.18,10.71Z"/>
        <path class="cls-3" d="M408.85,2403.4h-14.88v-78.27h-26.77v-12.76h68.43v12.76h-26.77v78.27Z"/>
        <path class="cls-3" d="M468.71,2403.4v-91.03h14.88v91.03h-14.88Z"/>
        <path class="cls-3" d="M558.2,2403.4h-14.88v-78.27h-26.77v-12.76h68.43v12.76h-26.77v78.27Z"/>
        <path class="cls-3" d="M689.4,2312.36v58.9c0,6.72-1.44,12.61-4.33,17.65-2.89,5.04-7.06,8.92-12.52,11.64-5.46,2.72-11.99,4.08-19.58,4.08-11.29,0-20.07-2.99-26.34-8.97-6.27-5.98-9.4-14.2-9.4-24.66v-58.66h14.94v57.6c0,7.51,1.74,13.06,5.23,16.62,3.49,3.57,8.84,5.36,16.06,5.36,14.03,0,21.05-7.37,21.05-22.1v-57.47h14.88Z"/>
        <path class="cls-3" d="M763.27,2403.4h-14.88v-78.27h-26.77v-12.76h68.43v12.76h-26.77v78.27Z"/>
        <path class="cls-3" d="M903.94,2357.75c0,14.82-3.7,26.34-11.11,34.56-7.41,8.22-17.9,12.33-31.48,12.33s-24.29-4.08-31.66-12.24c-7.37-8.16-11.05-19.75-11.05-34.78s3.71-26.57,11.11-34.62c7.41-8.05,17.98-12.08,31.73-12.08s23.99,4.09,31.38,12.27c7.39,8.18,11.08,19.7,11.08,34.56ZM834.45,2357.75c0,11.21,2.26,19.71,6.79,25.5,4.52,5.79,11.23,8.69,20.11,8.69s15.51-2.86,20.02-8.59c4.5-5.73,6.76-14.26,6.76-25.59s-2.23-19.63-6.69-25.41c-4.46-5.77-11.11-8.65-19.96-8.65s-15.66,2.88-20.21,8.65c-4.55,5.77-6.82,14.24-6.82,25.41Z"/>
        <path class="cls-3" d="M994.87,2403.4v-91.03h14.88v91.03h-14.88Z"/>
        <path class="cls-3" d="M1128.76,2403.4h-18.24l-44.77-72.54h-.5l.31,4.05c.58,7.72.87,14.78.87,21.17v47.32h-13.51v-91.03h18.06l44.65,72.17h.37c-.08-.95-.25-4.43-.5-10.43-.25-6-.37-10.68-.37-14.04v-47.7h13.64v91.03Z"/>
        <path class="cls-3" d="M1203.37,2403.4h-14.88v-78.27h-26.77v-12.76h68.43v12.76h-26.77v78.27Z"/>
        <path class="cls-3" d="M1314.71,2403.4h-51.49v-91.03h51.49v12.58h-36.61v24.78h34.31v12.45h-34.31v28.58h36.61v12.64Z"/>
        <path class="cls-3" d="M1368.4,2367.03v36.36h-14.88v-91.03h25.72c11.75,0,20.44,2.2,26.09,6.6,5.64,4.4,8.47,11.04,8.47,19.92,0,11.33-5.9,19.41-17.68,24.22l25.72,40.29h-16.94l-21.79-36.36h-14.69ZM1368.4,2354.7h10.34c6.93,0,11.96-1.29,15.07-3.86,3.11-2.57,4.67-6.39,4.67-11.46s-1.68-8.84-5.04-11.08c-3.36-2.24-8.43-3.36-15.19-3.36h-9.84v29.76Z"/>
        <path class="cls-3" d="M1529.99,2403.4h-18.24l-44.77-72.54h-.5l.31,4.05c.58,7.72.87,14.78.87,21.17v47.32h-13.51v-91.03h18.06l44.65,72.17h.37c-.08-.95-.25-4.43-.5-10.43-.25-6-.37-10.68-.37-14.04v-47.7h13.64v91.03Z"/>
        <path class="cls-3" d="M1629.63,2403.4l-9.09-25.28h-34.81l-8.9,25.28h-15.69l34.06-91.41h16.19l34.06,91.41h-15.82ZM1616.62,2365.29l-8.53-24.78c-.62-1.66-1.48-4.28-2.58-7.85-1.1-3.57-1.86-6.18-2.27-7.85-1.12,5.11-2.76,10.69-4.92,16.75l-8.22,23.72h26.53Z"/>
        <path class="cls-3" d="M1715.33,2323.82c-8.55,0-15.28,3.03-20.17,9.09-4.9,6.06-7.35,14.43-7.35,25.09s2.36,19.61,7.07,25.34c4.71,5.73,11.53,8.59,20.45,8.59,3.86,0,7.6-.38,11.21-1.15,3.61-.77,7.37-1.75,11.27-2.96v12.76c-7.14,2.7-15.23,4.05-24.28,4.05-13.33,0-23.56-4.04-30.7-12.11-7.14-8.07-10.71-19.62-10.71-34.65,0-9.46,1.73-17.75,5.2-24.84,3.47-7.1,8.48-12.54,15.04-16.31,6.56-3.78,14.26-5.67,23.1-5.67,9.3,0,17.89,1.95,25.78,5.85l-5.36,12.39c-3.07-1.45-6.32-2.73-9.74-3.83-3.43-1.1-7.03-1.65-10.8-1.65Z"/>
        <path class="cls-3" d="M1776.55,2403.4v-91.03h14.88v91.03h-14.88Z"/>
        <path class="cls-3" d="M1915.41,2357.75c0,14.82-3.71,26.34-11.11,34.56-7.41,8.22-17.9,12.33-31.48,12.33s-24.29-4.08-31.66-12.24c-7.37-8.16-11.05-19.75-11.05-34.78s3.71-26.57,11.12-34.62c7.41-8.05,17.98-12.08,31.72-12.08s23.99,4.09,31.38,12.27c7.39,8.18,11.08,19.7,11.08,34.56ZM1845.92,2357.75c0,11.21,2.26,19.71,6.79,25.5s11.23,8.69,20.11,8.69,15.51-2.86,20.02-8.59c4.5-5.73,6.76-14.26,6.76-25.59s-2.23-19.63-6.69-25.41c-4.46-5.77-11.11-8.65-19.96-8.65s-15.66,2.88-20.21,8.65c-4.54,5.77-6.82,14.24-6.82,25.41Z"/>
        <path class="cls-3" d="M2029.94,2403.4h-18.24l-44.77-72.54h-.5l.31,4.05c.58,7.72.87,14.78.87,21.17v47.32h-13.51v-91.03h18.06l44.65,72.17h.37c-.08-.95-.25-4.43-.5-10.43-.25-6-.37-10.68-.37-14.04v-47.7h13.64v91.03Z"/>
        <path class="cls-3" d="M2129.57,2403.4l-9.09-25.28h-34.81l-8.9,25.28h-15.69l34.06-91.41h16.19l34.06,91.41h-15.82ZM2116.56,2365.29l-8.53-24.78c-.62-1.66-1.48-4.28-2.58-7.85-1.1-3.57-1.86-6.18-2.27-7.85-1.12,5.11-2.76,10.69-4.92,16.75l-8.22,23.72h26.53Z"/>
        <path class="cls-3" d="M2176.54,2403.4v-91.03h14.88v78.27h38.54v12.76h-53.42Z"/>
        <path class="cls-3" d="M2391.07,2357.01c0,15.03-4.17,26.52-12.52,34.46s-20.36,11.92-36.05,11.92h-25.47v-91.03h28.14c14.49,0,25.76,3.9,33.81,11.71,8.05,7.8,12.08,18.78,12.08,32.94ZM2375.38,2357.51c0-21.79-10.19-32.69-30.57-32.69h-12.89v66.07h10.58c21.92,0,32.88-11.12,32.88-33.38Z"/>
        <path class="cls-3" d="M2481.25,2403.4h-51.5v-91.03h51.5v12.58h-36.61v24.78h34.31v12.45h-34.31v28.58h36.61v12.64Z"/>
        <path class="cls-3" d="M2632.58,2339.88c0,9.51-3.11,16.79-9.34,21.86s-15.09,7.6-26.59,7.6h-9.46v34.06h-14.88v-91.03h26.21c11.37,0,19.89,2.33,25.56,6.97,5.67,4.65,8.5,11.5,8.5,20.55ZM2587.19,2356.82h7.91c7.64,0,13.24-1.33,16.81-3.99,3.57-2.66,5.36-6.81,5.36-12.45,0-5.23-1.6-9.13-4.79-11.71-3.2-2.57-8.18-3.86-14.94-3.86h-10.34v32.01Z"/>
        <path class="cls-3" d="M2722.38,2378.68c0,8.09-2.93,14.45-8.78,19.05-5.85,4.61-13.93,6.91-24.22,6.91s-18.72-1.6-25.28-4.79v-14.07c4.15,1.95,8.56,3.49,13.23,4.61,4.67,1.12,9.02,1.68,13.04,1.68,5.89,0,10.24-1.12,13.04-3.36,2.8-2.24,4.2-5.25,4.2-9.03,0-3.4-1.29-6.29-3.86-8.66-2.57-2.37-7.89-5.17-15.94-8.41-8.3-3.36-14.16-7.2-17.56-11.52s-5.11-9.51-5.11-15.57c0-7.6,2.7-13.57,8.09-17.93,5.4-4.36,12.64-6.54,21.73-6.54s17.39,1.91,26.03,5.73l-4.73,12.14c-8.09-3.4-15.32-5.11-21.67-5.11-4.82,0-8.47,1.05-10.96,3.14-2.49,2.1-3.74,4.87-3.74,8.31,0,2.37.5,4.39,1.5,6.07,1,1.68,2.64,3.27,4.92,4.76,2.28,1.49,6.39,3.47,12.33,5.92,6.68,2.78,11.58,5.38,14.69,7.78,3.11,2.41,5.4,5.13,6.85,8.16,1.45,3.03,2.18,6.6,2.18,10.71Z"/>
        <path class="cls-3" d="M2759.13,2403.4v-91.03h14.88v91.03h-14.88Z"/>
        <path class="cls-3" d="M2855.9,2323.82c-8.55,0-15.28,3.03-20.17,9.09-4.9,6.06-7.35,14.43-7.35,25.09s2.36,19.61,7.07,25.34c4.71,5.73,11.53,8.59,20.45,8.59,3.86,0,7.6-.38,11.21-1.15,3.61-.77,7.37-1.75,11.27-2.96v12.76c-7.14,2.7-15.23,4.05-24.28,4.05-13.33,0-23.56-4.04-30.7-12.11-7.14-8.07-10.71-19.62-10.71-34.65,0-9.46,1.73-17.75,5.2-24.84,3.47-7.1,8.48-12.54,15.04-16.31,6.56-3.78,14.26-5.67,23.1-5.67,9.3,0,17.89,1.95,25.78,5.85l-5.35,12.39c-3.07-1.45-6.32-2.73-9.75-3.83-3.42-1.1-7.03-1.65-10.8-1.65Z"/>
        <path class="cls-3" d="M2997.95,2357.75c0,14.82-3.71,26.34-11.11,34.56-7.41,8.22-17.9,12.33-31.48,12.33s-24.29-4.08-31.66-12.24c-7.37-8.16-11.05-19.75-11.05-34.78s3.71-26.57,11.12-34.62c7.41-8.05,17.98-12.08,31.72-12.08s23.99,4.09,31.38,12.27c7.39,8.18,11.08,19.7,11.08,34.56ZM2928.46,2357.75c0,11.21,2.26,19.71,6.79,25.5s11.23,8.69,20.11,8.69,15.51-2.86,20.02-8.59c4.5-5.73,6.76-14.26,6.76-25.59s-2.23-19.63-6.69-25.41c-4.46-5.77-11.11-8.65-19.96-8.65s-15.66,2.88-20.21,8.65c-4.54,5.77-6.82,14.24-6.82,25.41Z"/>
        <path class="cls-3" d="M3036.63,2403.4v-91.03h14.88v78.27h38.54v12.76h-53.42Z"/>
        <path class="cls-3" d="M3205.7,2357.75c0,14.82-3.71,26.34-11.11,34.56-7.41,8.22-17.9,12.33-31.48,12.33s-24.29-4.08-31.66-12.24c-7.37-8.16-11.05-19.75-11.05-34.78s3.71-26.57,11.12-34.62c7.41-8.05,17.98-12.08,31.72-12.08s23.99,4.09,31.38,12.27c7.39,8.18,11.08,19.7,11.08,34.56ZM3136.21,2357.75c0,11.21,2.26,19.71,6.79,25.5s11.23,8.69,20.11,8.69,15.51-2.86,20.02-8.59c4.5-5.73,6.76-14.26,6.76-25.59s-2.23-19.63-6.69-25.41c-4.46-5.77-11.11-8.65-19.96-8.65s-15.66,2.88-20.21,8.65c-4.54,5.77-6.82,14.24-6.82,25.41Z"/>
        <path class="cls-3" d="M3281.61,2354.02h33.5v45.7c-5.48,1.79-10.74,3.05-15.79,3.8-5.04.75-10.49,1.12-16.34,1.12-13.78,0-24.41-4.08-31.88-12.24-7.47-8.16-11.21-19.67-11.21-34.53s4.21-26.12,12.64-34.4c8.43-8.28,20.03-12.42,34.81-12.42,9.51,0,18.51,1.83,27.02,5.48l-5.23,12.39c-7.39-3.4-14.78-5.11-22.17-5.11-9.71,0-17.39,3.05-23.04,9.15-5.65,6.1-8.47,14.45-8.47,25.03,0,11.12,2.54,19.58,7.63,25.37s12.4,8.69,21.95,8.69c4.82,0,9.96-.6,15.44-1.81v-23.47h-18.87v-12.76Z"/>
        <path class="cls-3" d="M3355.22,2305.08v-1.56c2.37-2.91,4.8-6.14,7.32-9.71,2.51-3.57,4.49-6.62,5.95-9.15h17v1.31c-2.16,2.53-5.39,5.8-9.68,9.81-4.3,4.01-7.92,7.11-10.87,9.31h-9.71ZM3356.1,2403.4v-91.03h14.88v91.03h-14.88Z"/>
        <path class="cls-3" d="M3470.62,2403.4l-9.09-25.28h-34.81l-8.9,25.28h-15.69l34.06-91.41h16.19l34.06,91.41h-15.82ZM3457.6,2365.29l-8.53-24.78c-.62-1.66-1.48-4.28-2.58-7.85-1.1-3.57-1.86-6.18-2.27-7.85-1.12,5.11-2.76,10.69-4.92,16.75l-8.22,23.72h26.53Z"/>
        <path class="cls-3" d="M999.22,2578.02h-14.88v-78.27h-26.77v-12.76h68.43v12.76h-26.77v78.27Z"/>
        <path class="cls-3" d="M1073.95,2541.65v36.36h-14.88v-91.03h25.72c11.75,0,20.44,2.2,26.09,6.6,5.64,4.4,8.47,11.04,8.47,19.92,0,11.33-5.9,19.41-17.68,24.22l25.72,40.29h-16.94l-21.79-36.36h-14.69ZM1073.95,2529.33h10.34c6.93,0,11.96-1.29,15.07-3.86,3.11-2.57,4.67-6.39,4.67-11.46s-1.68-8.84-5.04-11.08c-3.36-2.24-8.43-3.36-15.19-3.36h-9.84v29.76Z"/>
        <path class="cls-3" d="M1159.71,2578.02v-91.03h14.88v91.03h-14.88Z"/>
        <path class="cls-3" d="M1274.23,2578.02l-9.09-25.28h-34.81l-8.9,25.28h-15.69l34.06-91.41h16.19l34.06,91.41h-15.82ZM1261.21,2539.91l-8.53-24.78c-.62-1.66-1.48-4.28-2.58-7.85-1.1-3.57-1.86-6.18-2.27-7.85-1.12,5.11-2.76,10.69-4.92,16.75l-8.22,23.72h26.53ZM1238.86,2479.7v-1.56c2.37-2.91,4.8-6.14,7.32-9.71,2.51-3.57,4.49-6.62,5.95-9.15h17v1.31c-2.16,2.53-5.39,5.8-9.68,9.81s-7.92,7.11-10.87,9.31h-9.71Z"/>
        <path class="cls-3" d="M1395.22,2531.63c0,15.03-4.17,26.52-12.52,34.46s-20.36,11.92-36.05,11.92h-25.47v-91.03h28.14c14.49,0,25.76,3.9,33.81,11.71,8.05,7.8,12.08,18.78,12.08,32.94ZM1379.53,2532.13c0-21.79-10.19-32.69-30.57-32.69h-12.89v66.07h10.59c21.92,0,32.88-11.12,32.88-33.38Z"/>
        <path class="cls-3" d="M1433.9,2578.02v-91.03h14.88v91.03h-14.88Z"/>
        <path class="cls-3" d="M1530.68,2498.44c-8.55,0-15.28,3.03-20.17,9.09-4.9,6.06-7.35,14.43-7.35,25.09s2.36,19.61,7.07,25.34c4.71,5.73,11.53,8.59,20.45,8.59,3.86,0,7.6-.38,11.21-1.15,3.61-.77,7.37-1.75,11.27-2.96v12.76c-7.14,2.7-15.24,4.05-24.28,4.05-13.33,0-23.56-4.04-30.7-12.11-7.14-8.07-10.71-19.62-10.71-34.65,0-9.46,1.73-17.75,5.2-24.84,3.47-7.1,8.48-12.54,15.04-16.31,6.56-3.78,14.26-5.67,23.1-5.67,9.3,0,17.89,1.95,25.78,5.85l-5.35,12.39c-3.07-1.45-6.32-2.73-9.74-3.83-3.42-1.1-7.03-1.65-10.8-1.65Z"/>
        <path class="cls-3" d="M1648.38,2578.02l-9.09-25.28h-34.81l-8.9,25.28h-15.69l34.06-91.41h16.19l34.06,91.41h-15.82ZM1635.36,2539.91l-8.53-24.78c-.62-1.66-1.48-4.28-2.58-7.85-1.1-3.57-1.86-6.18-2.27-7.85-1.12,5.11-2.76,10.69-4.92,16.75l-8.22,23.72h26.53Z"/>
        <path class="cls-3" d="M1687.8,2550.06v-12.45h32v12.45h-32Z"/>
        <path class="cls-3" d="M1829.54,2531.63c0,15.03-4.17,26.52-12.52,34.46s-20.36,11.92-36.05,11.92h-25.47v-91.03h28.14c14.49,0,25.76,3.9,33.81,11.71,8.05,7.8,12.08,18.78,12.08,32.94ZM1813.84,2532.13c0-21.79-10.19-32.69-30.57-32.69h-12.89v66.07h10.58c21.92,0,32.88-11.12,32.88-33.38Z"/>
        <path class="cls-3" d="M1868.22,2578.02v-91.03h14.88v91.03h-14.88Z"/>
        <path class="cls-3" d="M1982.74,2578.02l-9.09-25.28h-34.81l-8.9,25.28h-15.69l34.06-91.41h16.19l34.06,91.41h-15.82ZM1969.72,2539.91l-8.53-24.78c-.62-1.66-1.48-4.28-2.58-7.85-1.1-3.57-1.86-6.18-2.27-7.85-1.12,5.11-2.76,10.69-4.92,16.75l-8.22,23.72h26.53Z"/>
        <path class="cls-3" d="M2029.7,2578.02v-91.03h14.88v78.27h38.54v12.76h-53.42Z"/>
        <path class="cls-3" d="M2169.44,2578.02h-51.5v-91.03h51.5v12.58h-36.61v24.78h34.31v12.45h-34.31v28.58h36.61v12.64ZM2133.32,2479.7v-1.56c2.37-2.91,4.8-6.14,7.32-9.71,2.51-3.57,4.49-6.62,5.95-9.15h17v1.31c-2.16,2.53-5.39,5.8-9.68,9.81-4.3,4.01-7.92,7.11-10.87,9.31h-9.71Z"/>
        <path class="cls-3" d="M2246.97,2498.44c-8.55,0-15.28,3.03-20.17,9.09-4.9,6.06-7.35,14.43-7.35,25.09s2.36,19.61,7.07,25.34c4.71,5.73,11.53,8.59,20.45,8.59,3.86,0,7.6-.38,11.21-1.15,3.61-.77,7.37-1.75,11.27-2.96v12.76c-7.14,2.7-15.23,4.05-24.28,4.05-13.33,0-23.56-4.04-30.7-12.11-7.14-8.07-10.71-19.62-10.71-34.65,0-9.46,1.73-17.75,5.2-24.84,3.47-7.1,8.48-12.54,15.04-16.31,6.56-3.78,14.26-5.67,23.1-5.67,9.3,0,17.89,1.95,25.78,5.85l-5.35,12.39c-3.07-1.45-6.32-2.73-9.75-3.83-3.42-1.1-7.03-1.65-10.8-1.65Z"/>
        <path class="cls-3" d="M2339.64,2578.02h-14.88v-78.27h-26.77v-12.76h68.43v12.76h-26.78v78.27Z"/>
        <path class="cls-3" d="M2399.49,2578.02v-91.03h14.88v91.03h-14.88Z"/>
        <path class="cls-3" d="M2496.26,2498.44c-8.55,0-15.28,3.03-20.17,9.09-4.9,6.06-7.35,14.43-7.35,25.09s2.36,19.61,7.07,25.34c4.71,5.73,11.53,8.59,20.45,8.59,3.86,0,7.6-.38,11.21-1.15,3.61-.77,7.37-1.75,11.27-2.96v12.76c-7.14,2.7-15.23,4.05-24.28,4.05-13.33,0-23.56-4.04-30.7-12.11-7.14-8.07-10.71-19.62-10.71-34.65,0-9.46,1.73-17.75,5.2-24.84,3.47-7.1,8.48-12.54,15.04-16.31,6.56-3.78,14.26-5.67,23.1-5.67,9.3,0,17.89,1.95,25.78,5.85l-5.35,12.39c-3.07-1.45-6.32-2.73-9.75-3.83-3.42-1.1-7.03-1.65-10.8-1.65Z"/>
        <path class="cls-3" d="M2613.96,2578.02l-9.09-25.28h-34.81l-8.9,25.28h-15.69l34.06-91.41h16.19l34.06,91.41h-15.82ZM2600.95,2539.91l-8.53-24.78c-.62-1.66-1.48-4.28-2.58-7.85-1.1-3.57-1.86-6.18-2.27-7.85-1.12,5.11-2.76,10.69-4.92,16.75l-8.22,23.72h26.53Z"/>
      </g>
      <path class="cls-1" d="M1767.03.92c67.92-3.73,115.98,3.48,178.49,28.98,169.7,69.23,295.51,225.17,308.58,410.95,123.81,102.8,195.36,269.68,177.32,431.24-32.2,288.37-340.02,476.22-611.06,368.91-245.49,104.37-581.11-32.72-652.67-297.09-51.9-191.73,24.77-387.46,169.73-515.22C1359.04,211.65,1545.57,13.09,1767.03.92ZM2061.57,336.65c-9.04-56.52-30.74-116.85-64.19-163.59-90.61-126.64-270.97-134.45-396.3-55.65-86.6,54.45-161.27,148.78-178.34,251.18,2.64.67,3.96-.7,5.96-1.59,22.62-10.09,45.29-25.24,68.55-35.68,157.18-70.56,313.18-67.62,477.27-22.76,29.52,8.07,57.95,18.86,87.05,28.09ZM2063.27,168.55c21.65,48.18,42.87,97.13,53.26,149.3,32.23,161.72-22.2,337.74-108.05,474.26-45.14,71.78-101.81,129.32-168.78,180.87,44.36,36.08,97.71,61.71,150.48,83.18,190.82-148.88,244.66-423.47,200.32-652.57-14.82-76.59-60.03-181.07-121.35-231.69-1.89-1.56-2.72-4.08-5.88-3.35ZM2064.66,407.54c-159.2-69.08-345.54-97.77-511.21-33.48-82.38,31.97-168.13,85.13-225.72,152.54-84.25,98.63-132.64,244.03-107.92,373.59.45,2.35,6.89,31.91,9.58,28.23,2.46-196.25,164.52-332.52,340-385.43,147.78-44.56,293.09-36.56,427.75,40.51,4.62,2.64,32.39,21.74,34.15,20.46,21.53-62.94,33.85-129.68,33.36-196.42ZM2059.9,1079.71c73.76,17.46,158.12,10.85,219.32-37.04,75.19-58.83,103.09-165.71,95.04-257.97-8.17-93.7-54.1-178.84-113.48-249.65-3.81-.7-2.32,1.66-2.5,4.17-1.74,23.86.96,49.77-.02,73.98-6.33,157.21-61.68,314.13-167.23,431.26-7.47,8.28-24.44,21.41-29.53,29.31-1.33,2.06-2.1,3.35-1.6,5.95ZM2197.74,1148.66c-202.04,24.13-390.27-93.18-514.38-242.98-24.17-29.18-48.4-62.13-69.34-93.73-4.41-6.65-27.51-40.59-26.3-45.41.65-2.57,36.81-29.04,41.97-32.13,1.4-.84,3.32-3.1,4.9-1.95,42.09,73.54,93.73,139.78,155.45,197.77,1.39,1.56,2.43,1.44,4.28.91,4.41-1.26,37.52-28.62,43.69-33.81,75.26-63.38,132.67-145.26,171.18-235.7.45-4.86-23.6-19.95-28.45-23.07-83.39-53.78-182.88-73.29-281.23-61.29-89.52,10.92-175.19,43.23-253.04,87.41-4.73,7.44,42.68,122.82,49.94,138.79,116.66,256.41,393.13,530.35,691.28,354.46,1.32-.78,12.84-6.84,10.05-9.27ZM1395.83,708.2c-2.56-.7-2.79.67-4.22,1.65-17.55,12.09-47.84,51.31-59.34,70.11-105.04,171.89-12.89,352.36,168.15,411.2,80.21,26.07,166.38,28.38,248.45,9.58l-1.05-5.14c-125.21-78.65-225.92-197.33-289.56-330.46-18.63-38.98-36.61-82.46-51.93-122.91-4.06-10.74-8.68-22.92-10.52-34.03Z"/>
      <g>
        <path class="cls-2" d="M579.1,1661.82c0,5.71-1.83,8.79-5.48,9.25-28.54,3.2-48.12,8.46-58.73,15.77-10.62,7.32-16.15,21.38-16.61,42.19l-7.53,403.68c0,4.56-2.74,6.85-8.22,6.85-2.74,0-6.39-1.83-10.96-5.48l-353.08-398.97-4.79,316.78c-.23,1.83-.34,3.54-.34,5.14,0,17.35,5.48,29.62,16.44,36.81,10.96,7.19,30.7,12.5,59.25,15.92,3.65.46,5.48,3.54,5.48,9.25,0,6.39-1.83,9.59-5.48,9.59-11.87,0-28.2-.68-48.97-2.05-19.41-1.37-34.36-2.05-44.86-2.05-11.42,0-26.83.68-46.23,2.05-18.72,1.37-33.22,2.05-43.49,2.05-3.65,0-5.48-3.2-5.48-9.59,0-5.7,2.05-8.79,6.16-9.25,28.31-3.42,47.71-8.74,58.22-15.94,10.5-7.2,16.1-21.19,16.78-41.98l11.99-322.51v-3.08c0-18.5-5.37-31.42-16.1-38.72-10.73-7.31-30.71-12.79-59.93-16.45-3.2,0-4.79-3.14-4.79-9.42s1.82-9.42,5.48-9.42c7.99,0,19.18.68,33.56,2.05,12.78,1.37,22.37,2.05,28.77,2.05,7.99,0,17.58-.68,28.77-2.05,11.41-1.37,21.23-2.05,29.45-2.05l329.79,368.83v-292.01c0-19.44-5.54-33.11-16.61-41-11.08-7.89-31.57-13.55-61.47-16.99-3.65-.46-5.48-3.54-5.48-9.25,0-6.39,1.82-9.59,5.48-9.59,12.33,0,28.77.68,49.31,2.05,19.18,1.37,34.02,2.05,44.52,2.05,11.41,0,26.82-.68,46.23-2.05,18.72-1.37,33.22-2.05,43.49-2.05,3.65,0,5.48,3.2,5.48,9.59Z"/>
        <path class="cls-2" d="M1150.32,1892.99c0,72.38-23.29,131.56-69.86,177.57-46.58,46.01-107.42,69.01-182.53,69.01s-135.9-23-182.36-69.01c-46.46-46-69.69-105.19-69.69-177.57s23.4-132.59,70.2-179.96c46.8-47.37,107.42-71.06,181.85-71.06s135.38,23.69,182.19,71.06c46.8,47.38,70.2,107.36,70.2,179.96ZM1074.98,1892.99c0-67.35-16.27-122.37-48.8-165.07-32.53-42.69-75.29-64.04-128.25-64.04s-95.95,21.35-128.25,64.04c-32.31,42.7-48.46,97.72-48.46,165.07s16.04,121.06,48.12,162.5c32.07,41.44,74.94,62.16,128.59,62.16s96.29-20.72,128.59-62.16c32.3-41.44,48.46-95.6,48.46-162.5Z"/>
        <path class="cls-2" d="M1653.73,2015.59c-18.49,39.5-33.56,77.17-45.21,113.01-86.08-2.74-147.38-4.11-183.9-4.11s-97.26,1.37-183.56,4.11c-3.65,0-5.48-3.2-5.48-9.59,0-5.7,1.82-8.79,5.48-9.25,18.95-2.29,33.44-5.31,43.49-9.08,10.04-3.77,17.06-8.85,21.06-15.25,3.99-6.4,5.99-17.59,5.99-33.59v-322.51c0-15.76-1.88-26.9-5.65-33.41-3.77-6.51-10.68-11.71-20.72-15.6-10.05-3.88-24.77-6.97-44.18-9.25-3.65,0-5.48-3.14-5.48-9.42s1.82-9.42,5.48-9.42c57.53,2.74,116.44,4.11,176.71,4.11s119.74-1.37,177.05-4.11c5.25,35.39,12.9,70.32,22.95,104.79,0,4.57-4,6.85-11.99,6.85-3.88,0-6.28-1.59-7.19-4.79-16.9-53.88-52.97-80.82-108.22-80.82h-69.18c-26.49,0-39.73,13.7-39.73,41.1v152.4h86.3c22.96,0,38.51-5.25,46.66-15.75,8.14-10.5,13.83-29.11,17.04-55.82,0-3.65,3.14-5.48,9.42-5.48s9.42,1.83,9.42,5.48c0,11.42-.68,25.8-2.05,43.15-1.37,16.67-2.05,30.25-2.05,40.75s.69,24.43,2.05,41.1c1.37,17.81,2.05,32.42,2.05,43.83,0,3.65-3.14,5.48-9.42,5.48s-9.42-1.83-9.42-5.48c-3.45-27.85-9.47-47.37-18.08-58.56-8.61-11.18-23.82-16.78-45.62-16.78h-86.3v168.49c0,26.94,13.24,40.41,39.73,40.41h74.66c27.17,0,54.11-8.84,80.82-26.54,26.71-17.69,46.34-39.78,58.9-66.27.91-2.05,2.85-3.08,5.82-3.08,3.19,0,6.05.86,8.56,2.57,2.51,1.71,3.77,3.83,3.77,6.33ZM1544.49,1522.44c0,5.94-2.05,10.16-6.16,12.67l-119.86,74.31c-2.05,1.37-4.11,2.05-6.16,2.05-1.6,0-3.94-1.59-7.02-4.79-3.08-3.2-4.62-6.16-4.62-8.9,0-2.05,1.25-4.22,3.77-6.51l102.4-96.92c2.28-2.28,5.25-3.42,8.9-3.42,7.76,0,14.5,3.6,20.21,10.79,5.7,7.19,8.56,14.1,8.56,20.72Z"/>
        <path class="cls-2" d="M2182.83,1764.91c0,4.34-4.11,6.51-12.33,6.51-3.66,0-5.94-1.59-6.85-4.79-9.82-32.19-23.86-54.96-42.12-68.32-18.27-13.36-45.32-20.03-81.16-20.03h-32.19c-11.19,0-18.83,1.83-22.95,5.48-4.11,3.65-6.16,10.5-6.16,20.55v347.6c0,15.75,2,26.88,5.99,33.39,3.99,6.51,11.07,11.64,21.23,15.41,10.16,3.77,24.71,6.8,43.66,9.08,3.65.46,5.48,3.54,5.48,9.25,0,6.39-1.83,9.59-5.48,9.59-15.3,0-33.56-.68-54.79-2.05-20.14-1.37-36.98-2.05-50.51-2.05s-31.17.68-51.54,2.05c-21.23,1.37-39.5,2.05-54.79,2.05-3.65,0-5.48-3.2-5.48-9.59,0-5.7,1.83-8.79,5.48-9.25,27.62-3.19,46.4-8.33,56.33-15.41,9.93-7.07,14.9-21.23,14.9-42.46v-347.6c0-10.04-2.05-16.89-6.16-20.55-4.11-3.65-11.87-5.48-23.29-5.48h-26.71c-32.19,0-61.42,8.17-87.67,24.49-26.26,16.33-43.38,37.5-51.37,63.53-1.15,3.42-3.65,5.14-7.53,5.14-7.76,0-11.64-2.51-11.64-7.53,12.78-34.47,24.88-73.51,36.3-117.12,31.07,6.39,102.13,9.59,213.18,9.59s186.56-3.19,217.63-9.59c3.19,29.68,10.04,69.07,20.55,118.15Z"/>
        <path class="cls-2" d="M2479.4,2119.01c0,6.39-1.83,9.59-5.48,9.59-15.3,0-33.45-.68-54.45-2.05-20.09-1.37-37.1-2.05-51.03-2.05s-30.94.68-51.03,2.05c-21.23,1.37-39.61,2.05-55.14,2.05-3.66,0-5.48-3.2-5.48-9.59,0-5.7,1.82-8.79,5.48-9.25,27.62-3.2,46.4-8.34,56.33-15.42s14.9-21.25,14.9-42.5v-322.51c0-15.99-2-27.24-5.99-33.75-4-6.51-11.02-11.65-21.06-15.43-10.05-3.77-24.78-6.8-44.18-9.08-3.66,0-5.48-3.14-5.48-9.42s1.82-9.42,5.48-9.42c15.52,0,33.9.68,55.14,2.05,20.09,1.37,37.1,2.05,51.03,2.05s30.93-.68,51.03-2.05c21-1.37,39.15-2.05,54.45-2.05,3.65,0,5.48,3.14,5.48,9.42s-1.83,9.42-5.48,9.42c-19.18,2.28-33.79,5.31-43.84,9.08-10.05,3.77-17.01,8.86-20.89,15.26-3.88,6.4-5.82,17.71-5.82,33.92v322.51c0,15.76,1.94,26.9,5.82,33.42,3.88,6.51,10.79,11.65,20.72,15.42,9.93,3.77,24.49,6.8,43.66,9.08,3.88.46,5.82,3.54,5.82,9.25Z"/>
        <path class="cls-2" d="M3038.63,2001.89c-8.22,36.53-16.21,75.34-23.97,116.44-13.01,0-36.64,3.08-70.89,9.25-43.83,7.99-76.26,11.99-97.26,11.99-52.05,0-97.72-10.27-136.98-30.82-39.27-20.55-69.86-49.94-91.78-88.18-21.92-38.24-32.88-80.76-32.88-127.57s11.58-88.64,34.76-127.57c23.17-38.92,55.08-69.23,95.72-90.92,40.63-21.69,86.41-32.53,137.33-32.53,21.46,0,50.22,2.28,86.3,6.85,28.08,3.66,48.51,5.48,61.3,5.48,2.96,31.97,8.22,70.78,15.75,116.44,0,3.65-3.65,5.48-10.96,5.48-4.57,0-7.31-1.83-8.22-5.48-8.22-31.05-25.91-56.62-53.08-76.71-27.17-20.09-58.45-30.14-93.83-30.14-53.65,0-98.69,22.15-135.1,66.44-36.42,44.3-54.62,98.52-54.62,162.67s18.03,115.36,54.11,159.07c36.07,43.72,80.14,65.58,132.19,65.58,81.51,0,139.26-38.58,173.29-115.75,1.59-3.65,4.68-5.48,9.25-5.48,6.39,0,9.59,1.83,9.59,5.48Z"/>
        <path class="cls-2" d="M3592.73,2119.01c0,6.39-1.83,9.59-5.48,9.59-15.77,0-33.59-.68-53.47-2.05-17.14-1.37-31.76-2.05-43.87-2.05-13.94,0-31.19.68-51.75,2.05-21.69,1.37-40.19,2.05-55.48,2.05-3.66,0-5.48-3.14-5.48-9.42s1.37-9.42,4.11-9.42c20.32-.92,34.93-3.62,43.83-8.1,8.9-4.47,13.36-11.42,13.36-20.84,0-5.97-2.29-15.5-6.85-28.6l-39.02-114.72h-140.63l-39.16,106.16c-5.02,14.23-7.53,25.25-7.53,33.05,0,20.19,18.49,31.21,55.47,33.05,2.74,0,4.11,3.14,4.11,9.42s-1.83,9.42-5.48,9.42c-13.7,0-28.88-.68-45.55-2.05-15.74-1.37-29.77-2.05-42.08-2.05-9.81,0-22.13.68-36.95,2.05-15.51,1.37-28.74,2.05-39.69,2.05-3.42,0-5.13-2.86-5.13-8.56,0-6.39,2.62-9.81,7.88-10.27,18.95-1.83,33.96-7.07,45.03-15.75,11.07-8.67,22.54-26.37,34.42-53.08l160.27-393.49c1.37-3.65,4.56-5.48,9.59-5.48,5.48,0,8.9,1.71,10.27,5.14l141.44,393.83c7.99,22.15,18.78,38.47,32.36,48.97,13.58,10.5,31.79,17.12,54.62,19.86,4.56.46,6.85,3.54,6.85,9.25ZM3385.11,1915.59l-60.13-174.52-64.8,174.52h124.93Z"/>
      </g>
    </g>
  </g>
</svg>