<?xml version="1.0" standalone="no"?>
<!DOCTYPE svg PUBLIC "-//W3C//DTD SVG 1.1//EN" "http://www.w3.org/Graphics/SVG/1.1/DTD/svg11.dtd">
<svg xmlns="http://www.w3.org/2000/svg" viewBox="0 0 1080 1080" width="1080" height="1080">
  <defs>
    <style>
      .cls-1 {
        fill: #fdc941;
      }

      .cls-1, .cls-2 {
        stroke-width: 0px;
      }

      .cls-2 {
        fill: #1d1d1b;
      }
    </style>
  </defs>
  <g id="Capa_2" data-name="Capa 2">
    <rect class="cls-1" width="1080" height="1080"/>
  </g>
  <g id="Capa_1" data-name="Capa 1">
    <g>
      <path class="cls-2" d="M250.4,534.42v-21.89h22.54v21.89h-22.54ZM250.4,589.79v-22.05h22.54v22.05h-22.54Z"/>
      <path class="cls-2" d="M287.34,619.3c13.23-23.19,19.93-47.86,19.93-72.19s-6.7-48.02-19.93-70.07h15.52c17.8,20.09,26.13,44.92,26.13,69.74s-9.15,52.1-26.13,72.52h-15.52Z"/>
      <g>
        <path class="cls-2" d="M412.25,596.99v-13.99c-6.9,11.36-17.24,16.63-31.03,16.63-19.87,0-33.87-14.8-33.87-36.71v-65.71h26.36v61.65c0,12.57,5.68,18.66,16.83,18.66,13.39,0,20.48-9.53,20.48-22.71v-57.6h26.16v99.78h-24.94Z"/>
        <path class="cls-2" d="M565.77,596.99v-60.44c0-11.97-6.29-20.48-15.62-20.48s-16.83,9.13-16.83,21.29v59.62h-26.36v-60.03c0-16.02-4.26-20.08-15.82-20.08-10.55,0-16.02,6.49-16.02,19.47v60.64h-26.36v-99.78h24.74v14.6c6.69-13.18,16.02-17.24,29.2-17.24s20.08,4.26,27.78,15.82c5.48-10.95,14.4-15.82,26.97-15.82,20.08,0,34.07,14.6,34.07,33.26v69.16h-25.76Z"/>
        <path class="cls-2" d="M602.27,485.24v-24.54h26.37v24.54h-26.37ZM602.27,596.99v-99.78h26.37v99.78h-26.37Z"/>
        <path class="cls-2" d="M704.48,596.99v-60.44c0-15.41-4.46-19.67-17.04-19.67-13.79,0-20.48,7.71-20.48,22.92v57.19h-26.37v-99.78h25.15v14.6c6.08-11.15,16.22-17.24,32.25-17.24,19.06,0,33.06,11.56,33.06,33.26v69.16h-26.57Z"/>
        <path class="cls-2" d="M805.06,596.99c-.81-2.43-1.42-5.88-1.62-8.92-6.29,6.9-16.83,11.56-30.22,11.56-22.71,0-33.26-11.15-33.26-27.38,0-28.8,19.27-32.04,45.83-35.69,13.18-1.83,16.83-4.46,16.83-11.36,0-6.49-6.49-10.34-16.83-10.34-11.97,0-16.83,5.88-18.05,14.8h-24.54c.41-20.69,11.76-35.09,43.81-35.09s42.59,14.2,42.59,39.34v63.07h-24.54ZM803.24,548.11c-2.64,2.64-7.3,4.06-17.04,5.88-15.01,2.84-19.88,7.1-19.88,15.62,0,7.5,4.46,11.15,12.78,11.15,13.59,0,23.73-9.94,23.93-21.7l.2-10.95Z"/>
      </g>
    </g>
  </g>
</svg>