<svg xmlns="http://www.w3.org/2000/svg" id="Capa_2" data-name="Capa 2" viewBox="0 0 965.18 865.84"><defs><style>      .cls-1 {        fill: #5e5e5e;      }    </style></defs><g id="Capa_1-2" data-name="Capa 1"><g><path class="cls-1" d="M375.91,310.11s-26.82,40.16-36.27,54.4c-44.2-49.87-72.53-131.46-78.25-180.93-5.82-50.38-1.09-128.46,85.7-169.49,3.88,72.76,27.26,285.32,28.81,296.02Z"></path><path class="cls-1" d="M388.57,294.42c-1.13-12.44-16.06-178.11-24-288.04,22.67-7.93,79.33-9.07,112.2,0-1.13,30.6-1.13,140.53-1.13,180.2-14.73,13.6-60.07,68-87.07,107.85Z"></path><path class="cls-1" d="M625.79,286c-6.4,7.43-65.15,81.91-122.95,111.37-31.36,15.99-102,23.8-153-22.67,11.24-17.4,26.77-40.75,38.53-57.8,88.4-9.07,148.46-35.13,237.42-30.91Z"></path><g><path class="cls-1" d="M.11,623.12C.11,579.23.19,535.34,0,491.45c-.02-4.65,1.26-5.69,5.76-5.66,27.3.22,54.6-.02,81.9.14,36.32.21,62.22,17.02,77.73,49.73,1.77,3.74,2.98,4.4,7.04,2.93,27.03-9.79,53.41-9.24,77.87,7.33,12.67,8.59,20.97,20.56,24.61,35.8,1.05,4.42-.54,5.03-3.78,5.65-12.08,2.33-24.16,4.7-36.23,7.09-1.32.26-2.59.82-3.91,1.09-2.7.54-4.38-.29-5.31-3.21-3.24-10.17-11-15.21-21.78-15.47-7.92-.19-15.03,1.3-21.06,6.58-9.81,8.59-9.08,23.12,1.6,30.65,8.21,5.8,17.8,7.45,27.51,8.47,14.03,1.48,28.08,2.7,41.64,6.99,23.48,7.42,38.23,22.15,42.95,47.19,4.16,22.08.3,41.48-14.49,58.39-13.87,15.87-31.96,23.97-52.4,27.37-12.82,2.13-25.62,1.94-38.06-2.08-24.24-7.83-40.66-23.76-48.49-48.14-.96-2.99-.98-5.03,3.86-6.07,13.21-2.85,26.63-4.63,39.75-7.89,2.93-.73,4.72-.6,5.95,3.04,3.97,11.81,13.56,17.84,25.01,18.31,10.91.45,21.36-3.5,27.84-13.64,7.52-11.77,1.38-26.13-11.78-30.76-12.38-4.35-25.18-4.37-37.83-5.91-17.04-2.07-32.72-7.35-46.61-17.45-2.39-1.73-3.74-1.94-6,.03-16,13.95-34.68,20.25-55.9,19.6-11.57-.35-23.16.11-34.73-.16-3.93-.09-4.94,1.04-4.91,4.91.22,26.26.07,52.53.35,78.79.05,4.64-1.28,5.8-5.8,5.68-12.26-.32-24.54-.29-36.8-.01-4.3.1-5.48-1.14-5.47-5.47.16-44.06.1-88.13.1-132.19ZM47.98,578.54c0,10.88.12,21.76-.07,32.63-.06,3.33.87,4.46,4.32,4.41,12.77-.19,25.55.04,38.33-.11,11.35-.13,22.16-8.52,26.36-19.21,3.88-9.87,3.95-19.82,1.89-29.91-2.59-12.7-14.3-23.11-27.43-23.69-13.27-.59-26.57-.17-39.86-.38-3.26-.05-3.59,1.55-3.57,4.15.08,10.7.03,21.41.03,32.11Z"></path><path class="cls-1" d="M456.07,632.97c0-41.12.07-82.23-.11-123.35-.02-4.42,1.29-5.35,5.48-5.32,29.71.18,59.44-.39,89.14.22,35.25.73,68.04,18.77,81.46,55.86,15.69,43.37-3.86,90.76-48.98,106.8-4.43,1.57-4.79,2.61-1.49,6.19,15.02,16.26,30.44,32.07,48.01,45.6,10.35,7.97,20.94,16.26,34.03,18.44,16.8,2.8,33.43.09,49.13-6.59,4.43-1.88,6.42-1.42,8.75,2.84,5.29,9.69,11.11,19.09,16.85,28.52,1.31,2.16,1.65,3.25-1.13,4.5-22.04,9.92-45.16,14.55-69.18,12.32-29.07-2.71-54.2-15.07-76.53-33.67-23.81-19.84-44.25-42.59-60.75-68.82-1.63-2.59-3.38-3.33-6.24-3.33-12.01.01-12.01-.07-12.01,11.67,0,24.01-.1,48.03.1,72.04.04,4.33-.7,5.94-5.55,5.82-15.19-.37-30.4-.29-45.6-.04-4.2.07-5.5-.91-5.48-5.32.18-41.46.11-82.92.11-124.39ZM512.5,590.46c0,10.01.1,20.01-.06,30.02-.05,3.19,1.01,4.2,4.16,4.1,6.03-.21,12.07-.03,18.11-.07,5.49-.04,11.16.7,16.45-.4,15.3-3.19,24.7-12.09,27.71-28.25,3.15-16.9-8.99-35.37-26.02-37.69-12.34-1.69-24.71-.39-37.05-.92-2.97-.13-3.35,1.28-3.33,3.72.09,9.83.04,19.67.04,29.5Z"></path><path class="cls-1" d="M878.26,763.67c-28.17.52-59.09-19.35-68.28-51.84-.88-3.1-.85-4.92,3.19-5.63,13.33-2.35,26.58-5.09,39.85-7.77,3.34-.68,5.35.16,6.64,3.57,4.15,10.98,13.2,16.02,23.97,17.95,15.84,2.84,32.01-11.36,31.6-27.26-.19-7.35-4.39-12.22-10.45-15.52-7.37-4.01-15.5-5.35-23.8-5.93-20.42-1.44-40.47-4.19-58.56-14.99-17.01-10.15-25.1-25.89-28.44-44.56-7.17-39.98,24.69-70.14,58.31-77.15,17.6-3.67,35-3.23,51.73,3.88,19.56,8.32,32.44,22.75,38.04,43.41.76,2.79.72,4.85-3.2,5.54-13.8,2.43-27.55,5.21-41.3,7.96-2.45.49-3.59.09-4.44-2.58-3.64-11.39-12.6-15.56-23.62-16.57-9.08-.83-21.08,5.88-25.15,14.26-4.55,9.38.64,20.13,8.65,24.78,7.65,4.44,16.18,6.36,24.9,7.2,19.56,1.89,39.08,3.74,56.92,13.18,17.7,9.36,26.26,24.67,29.24,43.78,1.79,11.46,1.69,22.72-2.23,33.89-6.43,18.28-19.07,30.9-35.78,39.71-14.07,7.42-29.22,10.83-47.78,10.68Z"></path><path class="cls-1" d="M310.91,594.34c0-28.16.09-56.32-.1-84.47-.03-4.19,1.22-5.14,5.22-5.12,38.52.14,77.04.18,115.57-.03,5.13-.03,6.37,1.57,6.21,6.46-.37,10.87-.35,21.77,0,32.64.15,4.59-1.24,5.89-5.76,5.85-23.66-.19-47.33.07-71-.22-4.94-.06-5.53.87-5.53,5.44,0,5.04-.26,9.07-.26,16.68-.2,3.53,1.12,4.29,4.4,4.27,18.66-.14,37.31.06,55.97-.16,4.05-.05,5.25,1,5.13,5.11-.3,10.7-.28,21.42,0,32.13.1,4.01-.92,5.26-5.09,5.2-18.48-.23-36.97,0-55.45-.18-3.72-.04-4.7.86-4.7,4.96v9.07c0,5.67.74,6.27,5.67,6.3,20.9.13,51.11.13,72.02-.02,3.51-.02,4.8.8,4.73,4.54-.22,12.26-.17,24.53-.03,36.79.04,3.27-.83,4.45-4.35,4.44-39.39-.13-78.77-.13-118.16,0-3.71.01-4.57-1.15-4.56-4.69.13-28.33.08-56.66.07-84.99Z"></path><path class="cls-1" d="M658.1,594.31c0-28.15.09-56.31-.1-84.46-.03-4.17,1.19-5.11,5.18-5.1,38.52.15,77.04.15,115.55,0,4.45-.02,6.36.8,6.16,5.87-.43,11.04-.43,22.12,0,33.15.19,5.04-1.66,5.93-6.14,5.89-23.49-.18-46.98.07-70.47-.21-4.91-.06-5.85.91-5.85,6.07s.01,9.57.01,16.05c-.2,3.58,1.22,4.28,4.46,4.26,18.48-.13,36.97.12,55.44-.19,4.74-.08,5.75,1.36,5.6,5.8-.33,10.35-.4,20.74.02,31.08.19,4.83-1.48,5.64-5.84,5.58-17.44-.24-34.89-.14-52.33-.08-6.36,0-7.27.33-7.27,7.51-.04,2.76-.06,4.15-.06,8.28,0,3.74,1.06,4.58,4.63,4.56,24.01-.15,48.02.04,72.03-.19,4.47-.04,5.92.93,5.77,5.63-.37,11.73-.27,23.49-.04,35.23.07,3.74-.75,4.98-4.78,4.97-39.04-.16-78.07-.18-117.11.02-4.37.02-4.95-1.52-4.94-5.29.14-28.15.07-56.31.07-84.46Z"></path></g><path class="cls-1" d="M399.71,302.18c17-23.8,63.47-82.73,86.13-105.4,46.47-5.67,121.26-13.6,183.6,6.8-5.67,23.8-17,48.73-35.13,70.27-85-5.67-141.66,6.8-234.59,28.33Z"></path><path class="cls-1" d="M490.38,171.84c0-13.46,4.53-149.6,4.53-160.93,78.2,22.67,115.6,53.27,131.46,65.73-62.33,26.07-96.79,56.29-136,95.2Z"></path><path class="cls-1" d="M500.58,180.91c24.93-26.07,73.66-68,134.86-94.06,29.47,29.47,39.67,65.73,36.27,104.26-29.47-9.07-61.29-11.82-72.75-12.53-17.58-1.09-75.71.06-98.38,2.33Z"></path><g><path class="cls-1" d="M53.97,841.52v14.52h-5.87v-45.36h12.87c3.65.49,6.73,1.99,9.24,4.51,3,3.02,4.51,6.65,4.51,10.89s-1.5,7.91-4.51,10.93c-3,3.02-6.63,4.52-10.89,4.52h-5.36ZM53.97,816.57v19.05h5.36c2.61,0,4.84-.93,6.71-2.79,1.86-1.86,2.79-4.12,2.79-6.76s-.93-4.87-2.79-6.72c-1.86-1.85-4.1-2.78-6.71-2.78h-5.36Z"></path><path class="cls-1" d="M84.85,849.77c.7.68,1.53,1.02,2.49,1.02s1.79-.34,2.48-1.02,1.03-1.52,1.03-2.52-.34-1.79-1.02-2.47c-.47-.47-1.48-1.2-3.03-2.18-2.12-1.15-3.62-2.17-4.51-3.06-1.55-1.55-2.32-3.41-2.32-5.59s.78-4.07,2.32-5.63c1.55-1.56,3.42-2.34,5.61-2.34s4.02.74,5.47,2.21c1.04,1.04,1.7,2.2,1.98,3.49l-5.7,1.64c-.13-.47-.27-.78-.4-.94-.34-.34-.79-.51-1.36-.51s-1.05.2-1.46.61c-.41.41-.61.89-.61,1.46s.2,1.05.59,1.45c.36.34,1.17.92,2.44,1.73,2.34,1.29,4.05,2.46,5.1,3.52,1.83,1.85,2.75,4.05,2.75,6.61s-.91,4.83-2.74,6.68c-1.82,1.84-4.04,2.76-6.65,2.76s-4.8-.93-6.63-2.78c-1.27-1.27-2.1-2.84-2.5-4.73l5.84-1.25c.17.87.43,1.48.79,1.84Z"></path><path class="cls-1" d="M110.22,816.06c.81.79,1.22,1.77,1.22,2.92s-.41,2.13-1.22,2.92c-.81.79-1.79,1.19-2.92,1.19s-2.08-.4-2.89-1.19c-.81-.79-1.22-1.77-1.22-2.92s.41-2.13,1.22-2.92c.81-.79,1.78-1.19,2.89-1.19s2.11.4,2.92,1.19ZM110.25,826.86v29.17h-5.87v-29.17h5.87Z"></path><path class="cls-1" d="M142.28,846.03l5.87,2.1c-1.44,1.98-2.48,3.3-3.12,3.94-3.16,3.16-6.96,4.73-11.43,4.73s-8.24-1.58-11.4-4.73c-3.16-3.16-4.73-6.96-4.73-11.43s1.58-8.27,4.73-11.42,6.96-4.73,11.4-4.73,8.27,1.58,11.43,4.73c.64.64,1.68,1.94,3.12,3.88l-5.87,2.15c-.76-.93-1.27-1.52-1.53-1.79-1.97-1.97-4.35-2.95-7.14-2.95s-5.15.99-7.13,2.96-2.96,4.36-2.96,7.16.99,5.16,2.96,7.13c1.98,1.98,4.35,2.96,7.13,2.96s5.19-.98,7.17-2.95c.25-.26.75-.85,1.5-1.76Z"></path><path class="cls-1" d="M169.33,824.48c4.46,0,8.26,1.58,11.41,4.73,3.15,3.16,4.72,6.96,4.72,11.42s-1.57,8.27-4.72,11.43c-3.15,3.16-6.95,4.73-11.41,4.73s-8.24-1.58-11.4-4.73c-3.16-3.16-4.74-6.96-4.74-11.43s1.58-8.27,4.74-11.42c3.16-3.16,6.95-4.73,11.4-4.73ZM162.17,833.49c-1.98,1.98-2.96,4.37-2.96,7.14s.99,5.18,2.96,7.14c1.98,1.97,4.36,2.95,7.16,2.95s5.18-.98,7.16-2.95c1.98-1.97,2.96-4.35,2.96-7.14s-.99-5.16-2.96-7.14-4.36-2.98-7.16-2.98-5.18.99-7.16,2.98Z"></path><path class="cls-1" d="M195.75,826.86v-10.94h5.87v10.94h5.24v5.87h-5.24v23.3h-5.87v-23.3h-5.24v-5.87h5.24Z"></path><path class="cls-1" d="M222.71,849.43c.98.87,2.77,1.3,5.36,1.3,2.8,0,5.19-.98,7.17-2.95.24-.26.75-.85,1.5-1.76l5.87,2.1c-1.44,1.98-2.48,3.3-3.12,3.94-3.16,3.16-6.97,4.73-11.43,4.73s-8.24-1.58-11.4-4.73c-3.16-3.16-4.73-6.96-4.73-11.43s1.58-8.27,4.73-11.42,6.95-4.73,11.4-4.73c3.82,0,7.16,1.15,10.04,3.46.47.4.94.82,1.39,1.28.19.19.73.78,1.62,1.79l-2.95,2.98-15.45,15.45ZM232.52,831.28c-.66-.51-2.15-.77-4.45-.77-2.78,0-5.16.99-7.13,2.96s-2.96,4.36-2.96,7.16c0,2.29.25,3.77.77,4.45l13.78-13.81Z"></path><path class="cls-1" d="M255.23,830.8c2.19-2.97,4.89-4.53,8.08-4.68v6.1c-2.14.11-3.84.8-5.1,2.07-1.91,1.89-2.9,4.14-2.98,6.75v15h-5.87v-29.17h5.87v3.94Z"></path><path class="cls-1" d="M294.24,828.9v-2.04h5.9v29.2h-5.9v-3.66c-2.84,2.93-6.12,4.39-9.87,4.39-4.46,0-8.26-1.57-11.41-4.72-3.15-3.15-4.72-6.95-4.72-11.41s1.57-8.26,4.72-11.41c3.15-3.15,6.95-4.72,11.41-4.72,3.74,0,7.03,1.46,9.87,4.37ZM294.24,842.82v-4.31c-.34-1.83-1.25-3.5-2.72-4.99-1.98-1.97-4.37-2.95-7.14-2.95s-5.18.98-7.16,2.95c-1.98,1.97-2.96,4.35-2.96,7.14s.99,5.16,2.96,7.13c1.97,1.98,4.36,2.96,7.16,2.96s5.16-.98,7.14-2.95c1.48-1.49,2.38-3.16,2.72-4.99Z"></path><path class="cls-1" d="M315.04,852.4v13.44h-5.87v-38.98h5.87v2.64c2.83-3.33,6.13-4.99,9.89-4.99,4.46,0,8.26,1.57,11.41,4.72,3.15,3.15,4.72,6.95,4.72,11.41s-1.57,8.27-4.72,11.43c-3.15,3.16-6.95,4.73-11.41,4.73-3.76,0-7.06-1.46-9.89-4.39ZM315.04,838.37v4.56c.36,1.8,1.28,3.42,2.75,4.88,1.97,1.97,4.35,2.95,7.14,2.95s5.18-.99,7.16-2.96c1.98-1.97,2.96-4.36,2.96-7.16s-.99-5.16-2.96-7.14-4.36-2.98-7.16-2.98-5.18.99-7.14,2.98c-1.47,1.46-2.39,3.08-2.75,4.88Z"></path><path class="cls-1" d="M354.42,816.06c.81.79,1.22,1.77,1.22,2.92s-.41,2.13-1.22,2.92-1.79,1.19-2.92,1.19-2.08-.4-2.89-1.19c-.81-.79-1.22-1.77-1.22-2.92s.41-2.13,1.22-2.92c.81-.79,1.78-1.19,2.89-1.19s2.11.4,2.92,1.19ZM354.45,826.86v29.17h-5.87v-29.17h5.87Z"></path><path class="cls-1" d="M388.67,828.9v-2.04h5.9v29.2h-5.9v-3.66c-2.84,2.93-6.12,4.39-9.87,4.39-4.46,0-8.26-1.57-11.41-4.72-3.15-3.15-4.72-6.95-4.72-11.41s1.57-8.26,4.72-11.41c3.15-3.15,6.95-4.72,11.41-4.72,3.74,0,7.03,1.46,9.87,4.37ZM388.67,842.82v-4.31c-.34-1.83-1.25-3.5-2.72-4.99-1.98-1.97-4.37-2.95-7.14-2.95s-5.18.98-7.16,2.95c-1.98,1.97-2.96,4.35-2.96,7.14s.99,5.16,2.96,7.13c1.97,1.98,4.36,2.96,7.16,2.96s5.16-.98,7.14-2.95c1.48-1.49,2.38-3.16,2.72-4.99Z"></path><path class="cls-1" d="M430.23,865.84h-6.21l7.77-16.3-10.86-22.68h6.61l7.4,15.96,7.4-15.96h6.58l-18.68,38.98Z"></path><path class="cls-1" d="M481.17,841.52v14.52h-5.87v-45.36h12.87c3.65.49,6.73,1.99,9.24,4.51,3,3.02,4.51,6.65,4.51,10.89s-1.5,7.91-4.51,10.93c-3,3.02-6.63,4.52-10.89,4.52h-5.36ZM481.17,816.57v19.05h5.36c2.61,0,4.84-.93,6.71-2.79,1.86-1.86,2.79-4.12,2.79-6.76s-.93-4.87-2.79-6.72c-1.86-1.85-4.1-2.78-6.71-2.78h-5.36Z"></path><path class="cls-1" d="M512.05,849.77c.7.68,1.53,1.02,2.49,1.02s1.79-.34,2.48-1.02,1.03-1.52,1.03-2.52-.34-1.79-1.02-2.47c-.47-.47-1.48-1.2-3.03-2.18-2.12-1.15-3.62-2.17-4.51-3.06-1.55-1.55-2.32-3.41-2.32-5.59s.78-4.07,2.32-5.63c1.55-1.56,3.42-2.34,5.61-2.34s4.02.74,5.47,2.21c1.04,1.04,1.7,2.2,1.98,3.49l-5.7,1.64c-.13-.47-.27-.78-.4-.94-.34-.34-.79-.51-1.36-.51s-1.05.2-1.46.61c-.41.41-.61.89-.61,1.46s.2,1.05.59,1.45c.36.34,1.17.92,2.44,1.73,2.34,1.29,4.05,2.46,5.1,3.52,1.83,1.85,2.75,4.05,2.75,6.61s-.91,4.83-2.74,6.68c-1.82,1.84-4.04,2.76-6.65,2.76s-4.8-.93-6.63-2.78c-1.27-1.27-2.1-2.84-2.5-4.73l5.84-1.25c.17.87.43,1.48.79,1.84Z"></path><path class="cls-1" d="M537.42,816.06c.81.79,1.22,1.77,1.22,2.92s-.41,2.13-1.22,2.92c-.81.79-1.79,1.19-2.92,1.19s-2.08-.4-2.89-1.19c-.81-.79-1.22-1.77-1.22-2.92s.41-2.13,1.22-2.92c.81-.79,1.78-1.19,2.89-1.19s2.11.4,2.92,1.19ZM537.45,826.86v29.17h-5.87v-29.17h5.87Z"></path><path class="cls-1" d="M569.48,846.03l5.87,2.1c-1.44,1.98-2.48,3.3-3.12,3.94-3.16,3.16-6.96,4.73-11.43,4.73s-8.24-1.58-11.4-4.73c-3.16-3.16-4.74-6.96-4.74-11.43s1.58-8.27,4.74-11.42c3.16-3.16,6.95-4.73,11.4-4.73s8.27,1.58,11.43,4.73c.64.64,1.68,1.94,3.12,3.88l-5.87,2.15c-.76-.93-1.27-1.52-1.53-1.79-1.97-1.97-4.35-2.95-7.14-2.95s-5.16.99-7.13,2.96c-1.97,1.97-2.96,4.36-2.96,7.16s.99,5.16,2.96,7.13c1.98,1.98,4.35,2.96,7.13,2.96s5.19-.98,7.17-2.95c.24-.26.75-.85,1.5-1.76Z"></path><path class="cls-1" d="M596.53,824.48c4.46,0,8.26,1.58,11.41,4.73,3.15,3.16,4.72,6.96,4.72,11.42s-1.57,8.27-4.72,11.43c-3.15,3.16-6.95,4.73-11.41,4.73s-8.24-1.58-11.4-4.73c-3.16-3.16-4.73-6.96-4.73-11.43s1.58-8.27,4.73-11.42,6.95-4.73,11.4-4.73ZM589.37,833.49c-1.97,1.98-2.96,4.37-2.96,7.14s.99,5.18,2.96,7.14c1.98,1.97,4.36,2.95,7.16,2.95s5.18-.98,7.16-2.95c1.98-1.97,2.96-4.35,2.96-7.14s-.99-5.16-2.96-7.14c-1.97-1.98-4.36-2.98-7.16-2.98s-5.18.99-7.16,2.98Z"></path><path class="cls-1" d="M628.48,849.43c.98.87,2.77,1.3,5.36,1.3,2.8,0,5.19-.98,7.17-2.95.25-.26.75-.85,1.5-1.76l5.87,2.1c-1.44,1.98-2.48,3.3-3.12,3.94-3.16,3.16-6.96,4.73-11.43,4.73s-8.24-1.58-11.4-4.73c-3.16-3.16-4.73-6.96-4.73-11.43s1.58-8.27,4.73-11.42,6.96-4.73,11.4-4.73c3.82,0,7.16,1.15,10.04,3.46.47.4.94.82,1.39,1.28.19.19.73.78,1.62,1.79l-2.95,2.98-15.45,15.45ZM638.29,831.28c-.66-.51-2.15-.77-4.45-.77-2.78,0-5.15.99-7.13,2.96s-2.96,4.36-2.96,7.16c0,2.29.26,3.77.77,4.45l13.78-13.81Z"></path><path class="cls-1" d="M680.44,828.87v-18.2h5.9v45.36h-5.9v-3.63c-2.84,2.93-6.13,4.39-9.89,4.39-4.46,0-8.27-1.58-11.41-4.73-3.15-3.16-4.72-6.96-4.72-11.43s1.57-8.27,4.72-11.42,6.95-4.73,11.41-4.73c3.76,0,7.06,1.47,9.89,4.39ZM680.44,842.82v-4.34c-.34-1.83-1.26-3.5-2.75-4.99-1.97-1.98-4.35-2.98-7.14-2.98s-5.18.99-7.16,2.98c-1.97,1.98-2.96,4.37-2.96,7.14s.99,5.18,2.96,7.14c1.98,1.97,4.36,2.95,7.16,2.95s5.18-.98,7.14-2.95c1.49-1.49,2.41-3.15,2.75-4.96Z"></path><path class="cls-1" d="M707.15,856.43c-3.69,0-6.65-1.12-8.9-3.37-2.25-2.25-3.4-5.07-3.46-8.45v-17.75h5.9v17.52c0,1.68.61,3.13,1.84,4.34s2.76,1.81,4.59,1.81c1.68,0,3.14-.6,4.38-1.8,1.24-1.2,1.86-2.65,1.86-4.35v-17.52h5.87v17.75c-.06,3.38-1.2,6.2-3.43,8.45-2.25,2.25-5.13,3.37-8.65,3.37Z"></path><path class="cls-1" d="M750.78,846.03l5.87,2.1c-1.44,1.98-2.48,3.3-3.12,3.94-3.16,3.16-6.96,4.73-11.43,4.73s-8.24-1.58-11.4-4.73c-3.16-3.16-4.73-6.96-4.73-11.43s1.58-8.27,4.73-11.42,6.96-4.73,11.4-4.73,8.27,1.58,11.43,4.73c.64.64,1.68,1.94,3.12,3.88l-5.87,2.15c-.76-.93-1.27-1.52-1.53-1.79-1.97-1.97-4.35-2.95-7.14-2.95s-5.15.99-7.13,2.96-2.96,4.36-2.96,7.16.99,5.16,2.96,7.13c1.98,1.98,4.35,2.96,7.13,2.96s5.19-.98,7.17-2.95c.25-.26.75-.85,1.5-1.76Z"></path><path class="cls-1" d="M788.68,828.9v-2.04h5.9v29.2h-5.9v-3.66c-2.83,2.93-6.12,4.39-9.87,4.39-4.46,0-8.27-1.57-11.41-4.72-3.15-3.15-4.72-6.95-4.72-11.41s1.57-8.26,4.72-11.41c3.15-3.15,6.95-4.72,11.41-4.72,3.74,0,7.03,1.46,9.87,4.37ZM788.68,842.82v-4.31c-.34-1.83-1.25-3.5-2.72-4.99-1.99-1.97-4.37-2.95-7.14-2.95s-5.18.98-7.16,2.95c-1.97,1.97-2.96,4.35-2.96,7.14s.99,5.16,2.96,7.13,4.36,2.96,7.16,2.96,5.16-.98,7.14-2.95c1.47-1.49,2.38-3.16,2.72-4.99Z"></path><path class="cls-1" d="M826.16,846.03l5.87,2.1c-1.44,1.98-2.48,3.3-3.12,3.94-3.16,3.16-6.96,4.73-11.43,4.73s-8.24-1.58-11.4-4.73c-3.16-3.16-4.73-6.96-4.73-11.43s1.58-8.27,4.73-11.42,6.96-4.73,11.4-4.73,8.27,1.58,11.43,4.73c.64.64,1.68,1.94,3.12,3.88l-5.87,2.15c-.76-.93-1.27-1.52-1.53-1.79-1.97-1.97-4.35-2.95-7.14-2.95s-5.15.99-7.13,2.96-2.96,4.36-2.96,7.16.99,5.16,2.96,7.13c1.98,1.98,4.35,2.96,7.13,2.96s5.19-.98,7.17-2.95c.25-.26.75-.85,1.5-1.76Z"></path><path class="cls-1" d="M845.1,816.06c.81.79,1.22,1.77,1.22,2.92s-.41,2.13-1.22,2.92c-.81.79-1.79,1.19-2.92,1.19s-2.08-.4-2.89-1.19-1.22-1.77-1.22-2.92.41-2.13,1.22-2.92,1.78-1.19,2.89-1.19,2.11.4,2.92,1.19ZM845.13,826.86v29.17h-5.87v-29.17h5.87Z"></path><path class="cls-1" d="M868.49,824.48c4.46,0,8.27,1.58,11.41,4.73s4.72,6.96,4.72,11.42-1.57,8.27-4.72,11.43c-3.15,3.16-6.95,4.73-11.41,4.73s-8.24-1.58-11.4-4.73c-3.16-3.16-4.73-6.96-4.73-11.43s1.58-8.27,4.73-11.42,6.96-4.73,11.4-4.73ZM861.33,833.49c-1.98,1.98-2.96,4.37-2.96,7.14s.99,5.18,2.96,7.14c1.97,1.97,4.36,2.95,7.16,2.95s5.18-.98,7.16-2.95c1.97-1.97,2.96-4.35,2.96-7.14s-.99-5.16-2.96-7.14c-1.98-1.98-4.36-2.98-7.16-2.98s-5.18.99-7.16,2.98ZM870.22,816.14h7.14l-7.71,7.91h-5.59l6.15-7.91Z"></path><path class="cls-1" d="M897.26,834.69v21.35h-5.9v-29.17h5.9v3.4c1.23-3.33,3.7-4.99,7.4-4.99,3.16,0,5.66,1.12,7.53,3.36,1.86,2.24,2.82,5.05,2.88,8.43v18.97h-5.87v-18.74c0-1.68-.61-3.12-1.84-4.32-1.23-1.2-2.69-1.8-4.39-1.8s-3.14.59-4.37,1.76c-.68.7-1.13,1.29-1.33,1.76Z"></path></g></g></g></svg>